<mxfile host="app.diagrams.net" modified="2024-02-11T07:49:00.482Z" agent="Mozilla/5.0 (Windows NT 10.0; Win64; x64) AppleWebKit/537.36 (KHTML, like Gecko) Chrome/121.0.0.0 Safari/537.36" etag="KEtBK-cLtxlSSS33_p-T" version="23.1.2" type="gitlab">
  <diagram name="Page-1" id="03018318-947c-dd8e-b7a3-06fadd420f32">
    <mxGraphModel dx="1050" dy="557" grid="1" gridSize="10" guides="1" tooltips="1" connect="1" arrows="1" fold="1" page="1" pageScale="1" pageWidth="1100" pageHeight="850" background="#ffffff" math="0" shadow="0">
      <root>
        <mxCell id="0" />
        <mxCell id="1" parent="0" />
        <mxCell id="677b7b8949515195-1" value="" style="whiteSpace=wrap;html=1;rounded=0;shadow=0;labelBackgroundColor=none;strokeColor=#000000;strokeWidth=1;fillColor=none;fontFamily=Verdana;fontSize=12;fontColor=#000000;align=center;comic=1;" parent="1" vertex="1">
          <mxGeometry x="20" y="20" width="1060" height="640" as="geometry" />
        </mxCell>
        <mxCell id="677b7b8949515195-2" value="LOGO" style="whiteSpace=wrap;html=1;rounded=0;shadow=0;labelBackgroundColor=none;strokeWidth=1;fontFamily=Verdana;fontSize=28;align=center;comic=1;" parent="1" vertex="1">
          <mxGeometry x="500" y="175" width="190" height="50" as="geometry" />
        </mxCell>
        <mxCell id="677b7b8949515195-10" value="" style="whiteSpace=wrap;html=1;rounded=0;shadow=0;labelBackgroundColor=none;strokeWidth=1;fillColor=none;fontFamily=Verdana;fontSize=12;align=center;comic=1;" parent="1" vertex="1">
          <mxGeometry x="30" y="30" width="1040" height="50" as="geometry" />
        </mxCell>
        <mxCell id="677b7b8949515195-11" value="Home" style="text;html=1;points=[];align=left;verticalAlign=top;spacingTop=-4;fontSize=14;fontFamily=Verdana" parent="1" vertex="1">
          <mxGeometry x="60" y="45" width="60" height="20" as="geometry" />
        </mxCell>
        <mxCell id="677b7b8949515195-12" value="History" style="text;html=1;points=[];align=left;verticalAlign=top;spacingTop=-4;fontSize=14;fontFamily=Verdana" parent="1" vertex="1">
          <mxGeometry x="220" y="45" width="60" height="20" as="geometry" />
        </mxCell>
        <mxCell id="8MxXZiBAqhEL92ki6RWF-1" value="JohnDoe@gmail.com" style="rounded=0;whiteSpace=wrap;html=1;" parent="1" vertex="1">
          <mxGeometry x="524" y="270" width="256" height="30" as="geometry" />
        </mxCell>
        <mxCell id="8MxXZiBAqhEL92ki6RWF-2" value="Email" style="text;html=1;points=[];align=left;verticalAlign=top;spacingTop=-4;fontSize=14;fontFamily=Verdana" parent="1" vertex="1">
          <mxGeometry x="380" y="275" width="60" height="20" as="geometry" />
        </mxCell>
        <mxCell id="8MxXZiBAqhEL92ki6RWF-3" value="Current Password" style="text;html=1;points=[];align=left;verticalAlign=top;spacingTop=-4;fontSize=14;fontFamily=Verdana" parent="1" vertex="1">
          <mxGeometry x="380" y="345" width="60" height="20" as="geometry" />
        </mxCell>
        <mxCell id="8MxXZiBAqhEL92ki6RWF-4" value="" style="rounded=0;whiteSpace=wrap;html=1;" parent="1" vertex="1">
          <mxGeometry x="524" y="340" width="256" height="30" as="geometry" />
        </mxCell>
        <mxCell id="8MxXZiBAqhEL92ki6RWF-5" value="New Password" style="text;html=1;points=[];align=left;verticalAlign=top;spacingTop=-4;fontSize=14;fontFamily=Verdana" parent="1" vertex="1">
          <mxGeometry x="380" y="395" width="60" height="20" as="geometry" />
        </mxCell>
        <mxCell id="8MxXZiBAqhEL92ki6RWF-6" value="" style="rounded=0;whiteSpace=wrap;html=1;" parent="1" vertex="1">
          <mxGeometry x="524" y="390" width="256" height="30" as="geometry" />
        </mxCell>
        <mxCell id="8MxXZiBAqhEL92ki6RWF-9" value="New Password" style="text;html=1;points=[];align=left;verticalAlign=top;spacingTop=-4;fontSize=14;fontFamily=Verdana" parent="1" vertex="1">
          <mxGeometry x="380" y="445" width="60" height="20" as="geometry" />
        </mxCell>
        <mxCell id="8MxXZiBAqhEL92ki6RWF-10" value="" style="rounded=0;whiteSpace=wrap;html=1;" parent="1" vertex="1">
          <mxGeometry x="524" y="440" width="256" height="30" as="geometry" />
        </mxCell>
        <mxCell id="8MxXZiBAqhEL92ki6RWF-16" value="&lt;b&gt;Change Password&lt;/b&gt;" style="rounded=1;fillColor=#dae8fc;align=center;strokeColor=#6c8ebf;html=1;whiteSpace=wrap;fontSize=12;sketch=0;" parent="1" vertex="1">
          <mxGeometry x="410" y="520" width="160" height="33" as="geometry" />
        </mxCell>
        <mxCell id="8MxXZiBAqhEL92ki6RWF-103" value="Delete" style="html=1;shadow=0;dashed=0;shape=mxgraph.bootstrap.rrect;rSize=5;strokeColor=#b85450;strokeWidth=1;fillColor=#f8cecc;whiteSpace=wrap;align=center;verticalAlign=middle;spacingLeft=0;fontStyle=0;fontSize=16;spacing=5;" parent="1" vertex="1">
          <mxGeometry x="610" y="521.5" width="160" height="30" as="geometry" />
        </mxCell>
        <mxCell id="LQenkPKNPlkYQLWToqc9-1" value="Account" style="text;html=1;points=[];align=left;verticalAlign=top;spacingTop=-4;fontSize=14;fontFamily=Verdana" parent="1" vertex="1">
          <mxGeometry x="960" y="40" width="60" height="20" as="geometry" />
        </mxCell>
        <mxCell id="YE-4Cqj8f150OB2OBqm9-3" value="" style="whiteSpace=wrap;html=1;rounded=0;shadow=0;labelBackgroundColor=none;strokeColor=#000000;strokeWidth=1;fillColor=none;fontFamily=Verdana;fontSize=12;fontColor=#000000;align=center;comic=1;" parent="1" vertex="1">
          <mxGeometry x="320" y="130" width="540" height="455" as="geometry" />
        </mxCell>
        <mxCell id="fnYSxmJ2Q7EKpU0FZEYu-1" value="Bulk" style="text;html=1;points=[];align=left;verticalAlign=top;spacingTop=-4;fontSize=14;fontFamily=Verdana" vertex="1" parent="1">
          <mxGeometry x="140" y="45" width="60" height="20" as="geometry" />
        </mxCell>
      </root>
    </mxGraphModel>
  </diagram>
</mxfile>
